<svg width="375" height="133" viewBox="0 0 375 133" fill="none" xmlns="http://www.w3.org/2000/svg">
<g id="Group 3">
<path id="Vector" fill-rule="evenodd" clip-rule="evenodd" d="M0 45.0647L12.5 36.1295C25 27.1942 50 9.32369 75 7.83448C100 6.34527 125 21.2374 150 30.1726C175 39.1079 200 42.0863 225 33.1511C250 24.2158 275 3.36685 300 0.388429C325 -2.58999 350 12.3021 362.5 19.7482L375 27.1942V54H362.5C350 54 325 54 300 54C275 54 250 54 225 54C200 54 175 54 150 54C125 54 100 54 75 54C50 54 25 54 12.5 54H0V45.0647Z" fill="#9ECDED"/>
<path id="Vector_2" fill-rule="evenodd" clip-rule="evenodd" d="M375 110.001L359.375 114.668C343.75 119.335 312.5 128.668 281.25 131.779C250 134.891 218.75 131.779 187.5 125.557C156.25 119.335 125 110.001 93.75 108.446C62.5 106.89 31.25 113.112 15.625 116.224L0 119.335V54H15.625C31.25 54 62.5 54 93.75 54C125 54 156.25 54 187.5 54C218.75 54 250 54 281.25 54C312.5 54 343.75 54 359.375 54H375V110.001Z" fill="#9ECDED"/>
</g>
</svg>
