<svg width="190" height="70" viewBox="0 0 190 70" fill="none" xmlns="http://www.w3.org/2000/svg">
<g filter="url(#filter0_d_5_48)">
<path d="M93.4916 8.95767C50.8547 -5.45444 16.7318 2.95263 5 8.95767V52.6444C14.2179 46.3391 44.8212 37.5117 93.4916 52.6444C142.162 67.7772 174.777 58.9497 185 52.6444V8.95767C172.263 14.9627 136.128 23.3698 93.4916 8.95767Z" fill="#B8D9EF" shape-rendering="crispEdges"/>
<path d="M93.4916 8.95767C50.8547 -5.45444 16.7318 2.95263 5 8.95767V52.6444C14.2179 46.3391 44.8212 37.5117 93.4916 52.6444C142.162 67.7772 174.777 58.9497 185 52.6444V8.95767C172.263 14.9627 136.128 23.3698 93.4916 8.95767Z" stroke="#2064A8" stroke-opacity="0.5" shape-rendering="crispEdges"/>
</g>
<defs>
<filter id="filter0_d_5_48" x="0.5" y="0.5" width="189" height="68.9999" filterUnits="userSpaceOnUse" color-interpolation-filters="sRGB">
<feFlood flood-opacity="0" result="BackgroundImageFix"/>
<feColorMatrix in="SourceAlpha" type="matrix" values="0 0 0 0 0 0 0 0 0 0 0 0 0 0 0 0 0 0 127 0" result="hardAlpha"/>
<feOffset dy="4"/>
<feGaussianBlur stdDeviation="2"/>
<feComposite in2="hardAlpha" operator="out"/>
<feColorMatrix type="matrix" values="0 0 0 0 0 0 0 0 0 0 0 0 0 0 0 0 0 0 0.25 0"/>
<feBlend mode="normal" in2="BackgroundImageFix" result="effect1_dropShadow_5_48"/>
<feBlend mode="normal" in="SourceGraphic" in2="effect1_dropShadow_5_48" result="shape"/>
</filter>
</defs>
</svg>
