<svg width="375" height="140" viewBox="0 0 375 140" fill="none" xmlns="http://www.w3.org/2000/svg">
<path fill-rule="evenodd" clip-rule="evenodd" d="M375 109.708L359.375 115.003C343.75 120.297 312.5 130.886 281.25 136.181C250 141.475 218.75 141.475 187.5 134.857C156.25 128.239 125 115.003 93.75 112.356C62.5 109.708 31.25 117.65 15.625 121.621L0 125.592V70H15.625C31.25 70 62.5 70 93.75 70C125 70 156.25 70 187.5 70C218.75 70 250 70 281.25 70C312.5 70 343.75 70 359.375 70H375V109.708Z" fill="#B8D9EF"/>
<path fill-rule="evenodd" clip-rule="evenodd" d="M0 30.2915L15.625 24.9971C31.25 19.7026 62.5 9.11367 93.75 3.81921C125 -1.47525 156.25 -1.47525 187.5 5.14283C218.75 11.7609 250 24.9971 281.25 27.6443C312.5 30.2915 343.75 22.3498 359.375 18.379L375 14.4081V70H359.375C343.75 70 312.5 70 281.25 70C250 70 218.75 70 187.5 70C156.25 70 125 70 93.75 70C62.5 70 31.25 70 15.625 70H0L0 30.2915Z" fill="#B8D9EF"/>
<path d="M44 34C82.8968 20.4168 171.152 1.40026 213 34" stroke="white"/>
<path d="M339 108C300.103 121.583 211.848 140.6 170 108" stroke="white"/>
</svg>
